<svg width="740" height="389" xmlns="http://www.w3.org/2000/svg" xmlns:xlink="http://www.w3.org/1999/xlink" overflow="hidden"><defs><clipPath id="clip0"><rect x="96" y="198" width="740" height="389"/></clipPath></defs><g clip-path="url(#clip0)" transform="translate(-96 -198)"><rect x="200.5" y="199.5" width="634" height="387" stroke="#000000" stroke-width="1.33333" stroke-miterlimit="8" fill="#FFFFFF"/><path d="M0 0 134.61 269.176" stroke="#000000" stroke-width="1.33333" stroke-miterlimit="8" fill="none" fill-rule="evenodd" transform="matrix(-1 0 0 1 405.11 259.5)"/><rect x="102" y="234" width="227" height="68" fill="#FFFFFF"/><text font-family="Yu Gothic,Yu Gothic_MSFontService,sans-serif" font-weight="400" font-size="24" transform="translate(111.519 261)">1. Declare this is <tspan font-size="24" x="0" y="29">t</tspan>he <tspan font-size="24" x="42.6667" y="29">l</tspan><tspan font-size="24" x="49" y="29">ine at</tspan><tspan font-size="24" x="118.167" y="29">infinity</tspan></text><path d="M11.4088 15.7999 14.4938 12.9721 19.6518 9.27863 25.3738 6.09979 31.5299 3.49772 37.9956 1.46925 44.8373 0.0122154 51.8704-0.811477 59.045-0.937346 59.08 1.06235 51.955 1.18735 52.0538 1.18071 45.1163 1.99321 45.2083 1.97807 38.4583 3.41557 38.5493 3.39165 32.1743 5.39165 32.2643 5.3586 26.2018 7.9211 26.2981 7.87416 20.6731 10.9992 20.7697 10.9381 15.7072 14.5631 15.8007 14.4872 12.7603 17.2742ZM21.3474 15.5485 10.6216 17.8781 13.8733 7.39496C14.0369 6.86746 14.5972 6.57249 15.1247 6.73611 15.6522 6.89973 15.9471 7.45998 15.7835 7.98747L13.0397 16.8333 11.8723 15.5598 20.9229 13.5941C21.4626 13.4769 21.9952 13.8194 22.1124 14.3591 22.2296 14.8988 21.8871 15.4313 21.3474 15.5485Z" fill="#FF0000" transform="matrix(-1 0 0 1 372 258)"/><path d="M329.5 413.5 583.228 525.38" stroke="#4472C4" stroke-width="1.33333" stroke-miterlimit="8" fill="none" fill-rule="evenodd"/><path d="M0 0 296.647 102.403" stroke="#4472C4" stroke-width="1.33333" stroke-miterlimit="8" fill="none" fill-rule="evenodd" transform="matrix(1 0 0 -1 329.5 413.903)"/><path d="M469.258 459.213 474.249 451.483 481.616 442.954 490.018 435.372 499.126 429.013 508.808 423.91 518.779 420.307 528.801 418.237 533.777 417.888 538.648 417.989 538.607 419.988 533.781 419.888 533.872 419.886 529.008 420.227 529.141 420.209 519.254 422.251 519.391 422.213 509.553 425.768 509.679 425.712 500.114 430.754 500.22 430.689 491.214 436.976 491.312 436.898 483.002 444.397 483.088 444.309 475.808 452.738 475.891 452.627 470.938 460.298ZM478.81 456.458 469.022 461.423 469.518 450.458C469.543 449.906 470.011 449.479 470.562 449.504 471.114 449.529 471.541 449.997 471.516 450.548L471.097 459.801 469.646 458.863 477.906 454.674C478.398 454.424 479 454.621 479.25 455.113 479.5 455.606 479.303 456.208 478.81 456.458Z" fill="#FF0000"/><path d="M109.97 96.9815 101.181 99.7214 90.011 101.867 78.5928 102.813 67.1774 102.561 55.9499 101.173 45.0932 98.6487 34.7923 94.9833 25.3605 90.2045 26.2645 88.4205 35.6395 93.1705 35.5227 93.1204 45.7102 96.7454 45.6015 96.7135 56.3515 99.2135 56.2477 99.1951 67.3727 100.57 67.2721 100.563 78.5846 100.813 78.4799 100.816 89.7924 99.8784 89.6864 99.893 100.749 97.768 100.64 97.7953 109.375 95.0721ZM100.87 92.9781 111.567 95.4361 104.162 103.538C103.789 103.945 103.157 103.974 102.749 103.601 102.341 103.229 102.313 102.596 102.686 102.188L108.934 95.3522 109.448 97.0014 100.422 94.9273C99.8836 94.8037 99.5475 94.2671 99.6712 93.7288 99.7949 93.1906 100.332 92.8545 100.87 92.9781Z" fill="#FF0000" transform="matrix(-0.915896 -0.401417 -0.401417 0.915896 598.286 336.179)"/><rect x="558" y="375" width="227" height="68" fill="#FFFFFF"/><text font-family="Yu Gothic,Yu Gothic_MSFontService,sans-serif" font-weight="400" font-size="24" transform="translate(567.988 402)">2. Define them<tspan font-size="24" x="0" y="29">being as</tspan><tspan font-size="24" x="100" y="29">parallel</tspan></text></g></svg>